<mxfile host="app.diagrams.net" modified="2022-03-31T02:54:27.644Z" agent="5.0 (Windows NT 10.0; Win64; x64) AppleWebKit/537.36 (KHTML, like Gecko) Chrome/99.0.4844.74 Safari/537.36 Edg/99.0.1150.55" etag="q5_mwOWhPYzBU8iKLo4G" version="17.2.5" type="github">
  <diagram id="i7UeL2dxpoHIb5eq07b1" name="Page-1">
    <mxGraphModel dx="1038" dy="579" grid="1" gridSize="10" guides="1" tooltips="1" connect="1" arrows="1" fold="1" page="1" pageScale="1" pageWidth="850" pageHeight="1100" math="0" shadow="0">
      <root>
        <mxCell id="0" />
        <mxCell id="1" parent="0" />
        <mxCell id="Jo--H7N7lSJ-YBzdtMZu-5" value="" style="edgeStyle=orthogonalEdgeStyle;rounded=0;orthogonalLoop=1;jettySize=auto;html=1;" edge="1" parent="1" source="Jo--H7N7lSJ-YBzdtMZu-1" target="Jo--H7N7lSJ-YBzdtMZu-4">
          <mxGeometry relative="1" as="geometry" />
        </mxCell>
        <mxCell id="Jo--H7N7lSJ-YBzdtMZu-1" value="Initialize simulation variables and objects" style="rounded=1;whiteSpace=wrap;html=1;" vertex="1" parent="1">
          <mxGeometry x="312" y="100" width="200" height="120" as="geometry" />
        </mxCell>
        <mxCell id="Jo--H7N7lSJ-YBzdtMZu-4" value="Log file wirte Worker create" style="rounded=0;whiteSpace=wrap;html=1;" vertex="1" parent="1">
          <mxGeometry x="352" y="260" width="120" height="60" as="geometry" />
        </mxCell>
      </root>
    </mxGraphModel>
  </diagram>
</mxfile>
